<svg width="108" height="54" viewBox="0 0 108 54" fill="none" xmlns="http://www.w3.org/2000/svg">
<rect x="49.1433" y="16.8698" width="18.94" height="5.68201" rx="2.84101" fill="#0F8445"/>
<rect x="49.1433" y="4.55881" width="5.68201" height="29.3571" rx="2.84101" fill="#FEBD1E"/>
<rect x="4.63428" y="16.8698" width="13.258" height="5.68201" rx="2.84101" fill="#0F8445"/>
<rect x="51.9131" y="3.43173" width="5.68201" height="21.7004" rx="2.84101" transform="rotate(44.0242 51.9131 3.43173)" fill="#0F8445"/>
<rect x="26.4155" y="4.55884" width="5.68201" height="29.3571" rx="2.84101" fill="#FEBD1E"/>
<rect x="1.79346" y="4.31479" width="5.68201" height="29.3571" rx="2.84101" fill="#FEBD1E"/>
<rect x="25.2244" y="7.38556" width="5.68201" height="21.795" rx="2.84101" transform="rotate(-45 25.2244 7.38556)" fill="#0F8445"/>
<rect x="50.0906" y="4.55881" width="17.993" height="5.68201" rx="2.84101" fill="#0F8445"/>
<rect x="1.79346" y="4.31479" width="16.099" height="5.68201" rx="2.84101" fill="#0F8445"/>
<path d="M64.2954 16.8698V22.5519C76.6064 22.5519 75.6594 4.55881 64.2954 4.55881V10.2408C69.0304 10.2408 69.0304 16.8698 64.2954 16.8698Z" fill="#0F8445"/>
<path d="M15.0515 16.8699V22.5519C27.3625 22.5519 26.4155 4.31479 15.0515 4.31479V9.9968C19.7865 9.9968 19.7865 16.8699 15.0515 16.8699Z" fill="#0F8445"/>
<path d="M4.96272 51.064C4.48262 51.064 4.01297 51.0275 3.55374 50.9544C3.09452 50.8814 2.66139 50.7718 2.25436 50.6257C1.84732 50.4691 1.48203 50.2813 1.15849 50.0621C1.00194 49.9473 0.89235 49.8168 0.829729 49.6707C0.777545 49.5246 0.761889 49.3837 0.782763 49.248C0.814074 49.1019 0.876695 48.9767 0.970626 48.8723C1.06456 48.7679 1.17936 48.7053 1.31504 48.6844C1.45072 48.6531 1.60206 48.6949 1.76904 48.8097C2.2387 49.1123 2.73445 49.3367 3.25629 49.4828C3.77814 49.6185 4.34694 49.6864 4.96272 49.6864C5.84985 49.6864 6.50215 49.5298 6.91963 49.2167C7.34754 48.8932 7.56149 48.4757 7.56149 47.9643C7.56149 47.5468 7.41016 47.218 7.10749 46.978C6.80482 46.7275 6.29863 46.5292 5.58893 46.3831L3.91382 46.0387C2.92232 45.8299 2.1813 45.4855 1.69077 45.0054C1.21067 44.5253 0.970626 43.8783 0.970626 43.0642C0.970626 42.5737 1.06978 42.1249 1.26808 41.7178C1.47681 41.3108 1.76383 40.9612 2.12912 40.6689C2.49441 40.3663 2.93275 40.1366 3.44416 39.9801C3.95556 39.8235 4.51393 39.7453 5.11927 39.7453C5.76636 39.7453 6.37169 39.8288 6.93528 39.9958C7.50931 40.1627 8.02071 40.4184 8.4695 40.7629C8.60518 40.8568 8.69389 40.9768 8.73564 41.1229C8.78782 41.2586 8.79826 41.3943 8.76695 41.53C8.74607 41.6656 8.68867 41.7805 8.59474 41.8744C8.50081 41.9683 8.38078 42.0257 8.23467 42.0466C8.08855 42.057 7.92678 42.0048 7.74936 41.89C7.34232 41.6187 6.92485 41.4256 6.49693 41.3108C6.07946 41.1856 5.61502 41.1229 5.10362 41.1229C4.59221 41.1229 4.14343 41.2012 3.75726 41.3578C3.38154 41.5143 3.08931 41.7335 2.88057 42.0153C2.68227 42.2971 2.58312 42.6311 2.58312 43.0172C2.58312 43.4556 2.72402 43.8052 3.00581 44.0661C3.28761 44.327 3.75726 44.5253 4.41478 44.661L6.07424 45.0054C7.11793 45.2246 7.89547 45.5638 8.40688 46.023C8.91828 46.4822 9.17398 47.0928 9.17398 47.8547C9.17398 48.3452 9.07483 48.7888 8.87653 49.1854C8.67823 49.5716 8.39644 49.9055 8.03115 50.1873C7.66586 50.4691 7.22229 50.6883 6.70045 50.8448C6.18905 50.991 5.6098 51.064 4.96272 51.064ZM11.633 51.0171C11.3825 51.0171 11.1894 50.944 11.0537 50.7979C10.918 50.6413 10.8502 50.4274 10.8502 50.156V44.0505C10.8502 43.7791 10.918 43.5704 11.0537 43.4243C11.1894 43.2781 11.3825 43.2051 11.633 43.2051C11.8834 43.2051 12.0765 43.2781 12.2122 43.4243C12.3583 43.5704 12.4314 43.7791 12.4314 44.0505V50.156C12.4314 50.4274 12.3635 50.6413 12.2279 50.7979C12.0922 50.944 11.8939 51.0171 11.633 51.0171ZM11.633 41.5769C11.3199 41.5769 11.0746 41.4987 10.8972 41.3421C10.7302 41.1856 10.6467 40.9664 10.6467 40.6846C10.6467 40.3924 10.7302 40.1732 10.8972 40.0271C11.0746 39.8705 11.3199 39.7922 11.633 39.7922C11.9461 39.7922 12.1861 39.8705 12.3531 40.0271C12.5305 40.1732 12.6192 40.3924 12.6192 40.6846C12.6192 40.9664 12.5305 41.1856 12.3531 41.3421C12.1861 41.4987 11.9461 41.5769 11.633 41.5769ZM15.4398 51.0327C15.1893 51.0327 14.9962 50.9649 14.8605 50.8292C14.7248 50.6831 14.657 50.4848 14.657 50.2343V43.9722C14.657 43.7113 14.7248 43.513 14.8605 43.3773C14.9962 43.2416 15.1841 43.1738 15.4241 43.1738C15.6746 43.1738 15.8625 43.2416 15.9877 43.3773C16.1234 43.513 16.1912 43.7113 16.1912 43.9722V45.1933L16.019 44.9115C16.2486 44.327 16.6087 43.8887 17.0992 43.5965C17.5897 43.2938 18.1533 43.1425 18.79 43.1425C19.3953 43.1425 19.8963 43.2573 20.2929 43.4869C20.6999 43.706 21.0026 44.0452 21.2009 44.5045C21.3992 44.9533 21.4983 45.5221 21.4983 46.2109V50.2343C21.4983 50.4848 21.4305 50.6831 21.2948 50.8292C21.1591 50.9649 20.9661 51.0327 20.7156 51.0327C20.4547 51.0327 20.2564 50.9649 20.1207 50.8292C19.985 50.6831 19.9172 50.4848 19.9172 50.2343V46.3048C19.9172 45.6473 19.7867 45.1672 19.5258 44.8645C19.2753 44.5619 18.8787 44.4105 18.336 44.4105C17.6993 44.4105 17.1879 44.6088 16.8018 45.0054C16.426 45.402 16.2382 45.9343 16.2382 46.6023V50.2343C16.2382 50.7666 15.972 51.0327 15.4398 51.0327ZM27.1369 53.882C26.5733 53.882 26.0254 53.8246 25.4931 53.7098C24.9713 53.595 24.4964 53.4071 24.0685 53.1462C23.9119 53.0627 23.8076 52.9583 23.7554 52.8331C23.7032 52.7183 23.6876 52.5982 23.7084 52.473C23.7397 52.3478 23.7971 52.2382 23.8806 52.1442C23.9641 52.0503 24.0633 51.9877 24.1781 51.9564C24.3033 51.9251 24.4338 51.9459 24.5695 52.019C25.0287 52.2695 25.4618 52.4365 25.8689 52.52C26.2863 52.6139 26.6725 52.6609 27.0273 52.6609C27.7579 52.6609 28.3059 52.473 28.6711 52.0973C29.0364 51.732 29.2191 51.1893 29.2191 50.4691V48.8723H29.36C29.2034 49.4463 28.8747 49.9003 28.3737 50.2343C27.8727 50.5683 27.2935 50.7353 26.636 50.7353C25.9471 50.7353 25.347 50.5787 24.8356 50.2656C24.3242 49.9421 23.9276 49.4985 23.6458 48.9349C23.364 48.3609 23.2231 47.6929 23.2231 46.931C23.2231 46.357 23.3014 45.8404 23.4579 45.3812C23.6249 44.9219 23.8545 44.5253 24.1468 44.1914C24.4494 43.8574 24.8095 43.6017 25.227 43.4243C25.6549 43.2364 26.1246 43.1425 26.636 43.1425C27.3039 43.1425 27.8832 43.3094 28.3737 43.6434C28.8747 43.9774 29.1982 44.4314 29.3443 45.0054L29.1878 45.2716V43.9722C29.1878 43.7113 29.2556 43.513 29.3913 43.3773C29.5374 43.2416 29.7305 43.1738 29.9705 43.1738C30.221 43.1738 30.4141 43.2416 30.5498 43.3773C30.6855 43.513 30.7533 43.7113 30.7533 43.9722V50.2813C30.7533 51.4711 30.4454 52.3686 29.8296 52.974C29.2139 53.5793 28.3163 53.882 27.1369 53.882ZM27.0117 49.4985C27.4709 49.4985 27.8623 49.3941 28.1858 49.1854C28.5094 48.9767 28.7599 48.6792 28.9373 48.293C29.1147 47.9069 29.2034 47.4529 29.2034 46.931C29.2034 46.1483 29.0051 45.5273 28.6085 45.0681C28.2224 44.6088 27.6901 44.3792 27.0117 44.3792C26.5629 44.3792 26.1767 44.4836 25.8532 44.6923C25.5297 44.9011 25.274 45.1985 25.0861 45.5847C24.9087 45.9604 24.82 46.4092 24.82 46.931C24.82 47.7242 25.0183 48.3504 25.4149 48.8097C25.8115 49.2689 26.3437 49.4985 27.0117 49.4985ZM35.4303 51.064C34.6162 51.064 34.0005 50.8292 33.583 50.3595C33.1759 49.8794 32.9724 49.1906 32.9724 48.293V40.575C32.9724 40.3141 33.0403 40.1158 33.1759 39.9801C33.3116 39.8444 33.5047 39.7766 33.7552 39.7766C34.0057 39.7766 34.1988 39.8444 34.3344 39.9801C34.4806 40.1158 34.5536 40.3141 34.5536 40.575V48.1991C34.5536 48.721 34.658 49.1123 34.8667 49.3733C35.0859 49.6237 35.399 49.749 35.806 49.749C35.9 49.749 35.9835 49.749 36.0565 49.749C36.1296 49.7385 36.2026 49.7281 36.2757 49.7177C36.4009 49.7072 36.4896 49.7438 36.5418 49.8273C36.594 49.9003 36.6201 50.0569 36.6201 50.2969C36.6201 50.5161 36.5731 50.6883 36.4792 50.8135C36.3853 50.9283 36.2339 51.0014 36.0252 51.0327C35.9313 51.0431 35.8321 51.0484 35.7278 51.0484C35.6234 51.0588 35.5242 51.064 35.4303 51.064ZM41.2663 51.064C40.4313 51.064 39.7112 50.9075 39.1059 50.5944C38.511 50.2708 38.0465 49.8168 37.7125 49.2324C37.389 48.6375 37.2272 47.933 37.2272 47.1189C37.2272 46.3257 37.389 45.6316 37.7125 45.0367C38.0361 44.4418 38.4797 43.9774 39.0432 43.6434C39.6068 43.3094 40.2487 43.1425 40.9688 43.1425C41.5011 43.1425 41.976 43.2312 42.3935 43.4086C42.8109 43.5756 43.1658 43.8261 43.458 44.1601C43.7607 44.4836 43.9851 44.8802 44.1312 45.3499C44.2878 45.8195 44.366 46.3466 44.366 46.931C44.366 47.1085 44.3139 47.2441 44.2095 47.3381C44.1051 47.4216 43.9486 47.4633 43.7398 47.4633H38.4797V46.4927H43.3015L43.0353 46.7119C43.0353 46.19 42.9571 45.7465 42.8005 45.3812C42.6544 45.0159 42.43 44.7393 42.1273 44.5514C41.8351 44.3531 41.4698 44.254 41.0315 44.254C40.5409 44.254 40.1235 44.3688 39.779 44.5984C39.4451 44.828 39.1894 45.1463 39.0119 45.5534C38.8345 45.9604 38.7458 46.4353 38.7458 46.978V47.0719C38.7458 47.9904 38.9598 48.6844 39.3877 49.1541C39.826 49.6133 40.4574 49.8429 41.2819 49.8429C41.5951 49.8429 41.9238 49.8012 42.2682 49.7177C42.6231 49.6342 42.9571 49.4933 43.2702 49.295C43.4476 49.1906 43.6041 49.1436 43.7398 49.1541C43.8859 49.1645 44.0007 49.2115 44.0842 49.295C44.1782 49.3785 44.2356 49.4828 44.2564 49.6081C44.2773 49.7333 44.2564 49.8638 44.1938 49.9995C44.1312 50.1247 44.0216 50.2395 43.8651 50.3439C43.5102 50.5839 43.098 50.7666 42.6283 50.8918C42.1586 51.0066 41.7046 51.064 41.2663 51.064ZM54.0689 51.064C53.5888 51.064 53.1191 51.0275 52.6599 50.9544C52.2007 50.8814 51.7676 50.7718 51.3605 50.6257C50.9535 50.4691 50.5882 50.2813 50.2646 50.0621C50.1081 49.9473 49.9985 49.8168 49.9359 49.6707C49.8837 49.5246 49.868 49.3837 49.8889 49.248C49.9202 49.1019 49.9829 48.9767 50.0768 48.8723C50.1707 48.7679 50.2855 48.7053 50.4212 48.6844C50.5569 48.6531 50.7082 48.6949 50.8752 48.8097C51.3449 49.1123 51.8406 49.3367 52.3625 49.4828C52.8843 49.6185 53.4531 49.6864 54.0689 49.6864C54.956 49.6864 55.6083 49.5298 56.0258 49.2167C56.4537 48.8932 56.6676 48.4757 56.6676 47.9643C56.6676 47.5468 56.5163 47.218 56.2136 46.978C55.911 46.7275 55.4048 46.5292 54.6951 46.3831L53.02 46.0387C52.0285 45.8299 51.2875 45.4855 50.7969 45.0054C50.3168 44.5253 50.0768 43.8783 50.0768 43.0642C50.0768 42.5737 50.1759 42.1249 50.3742 41.7178C50.583 41.3108 50.87 40.9612 51.2353 40.6689C51.6006 40.3663 52.0389 40.1366 52.5503 39.9801C53.0617 39.8235 53.6201 39.7453 54.2254 39.7453C54.8725 39.7453 55.4778 39.8288 56.0414 39.9958C56.6155 40.1627 57.1269 40.4184 57.5757 40.7629C57.7113 40.8568 57.8 40.9768 57.8418 41.1229C57.894 41.2586 57.9044 41.3943 57.8731 41.53C57.8522 41.6656 57.7948 41.7805 57.7009 41.8744C57.607 41.9683 57.4869 42.0257 57.3408 42.0466C57.1947 42.057 57.0329 42.0048 56.8555 41.89C56.4485 41.6187 56.031 41.4256 55.6031 41.3108C55.1856 41.1856 54.7212 41.1229 54.2098 41.1229C53.6984 41.1229 53.2496 41.2012 52.8634 41.3578C52.4877 41.5143 52.1955 41.7335 51.9867 42.0153C51.7884 42.2971 51.6893 42.6311 51.6893 43.0172C51.6893 43.4556 51.8302 43.8052 52.112 44.0661C52.3938 44.327 52.8634 44.5253 53.5209 44.661L55.1804 45.0054C56.2241 45.2246 57.0016 45.5638 57.513 46.023C58.0244 46.4822 58.2801 47.0928 58.2801 47.8547C58.2801 48.3452 58.181 48.7888 57.9827 49.1854C57.7844 49.5716 57.5026 49.9055 57.1373 50.1873C56.772 50.4691 56.3285 50.6883 55.8066 50.8448C55.2952 50.991 54.716 51.064 54.0689 51.064ZM60.7391 51.0171C60.4886 51.0171 60.2956 50.944 60.1599 50.7979C60.0242 50.6413 59.9564 50.4274 59.9564 50.156V44.0505C59.9564 43.7791 60.0242 43.5704 60.1599 43.4243C60.2956 43.2781 60.4886 43.2051 60.7391 43.2051C60.9896 43.2051 61.1827 43.2781 61.3184 43.4243C61.4645 43.5704 61.5375 43.7791 61.5375 44.0505V50.156C61.5375 50.4274 61.4697 50.6413 61.334 50.7979C61.1983 50.944 61 51.0171 60.7391 51.0171ZM60.7391 41.5769C60.426 41.5769 60.1807 41.4987 60.0033 41.3421C59.8363 41.1856 59.7528 40.9664 59.7528 40.6846C59.7528 40.3924 59.8363 40.1732 60.0033 40.0271C60.1807 39.8705 60.426 39.7922 60.7391 39.7922C61.0522 39.7922 61.2923 39.8705 61.4593 40.0271C61.6367 40.1732 61.7254 40.3924 61.7254 40.6846C61.7254 40.9664 61.6367 41.1856 61.4593 41.3421C61.2923 41.4987 61.0522 41.5769 60.7391 41.5769ZM67.223 53.882C66.6594 53.882 66.1114 53.8246 65.5792 53.7098C65.0573 53.595 64.5824 53.4071 64.1545 53.1462C63.998 53.0627 63.8936 52.9583 63.8414 52.8331C63.7892 52.7183 63.7736 52.5982 63.7945 52.473C63.8258 52.3478 63.8832 52.2382 63.9667 52.1442C64.0502 52.0503 64.1493 51.9877 64.2641 51.9564C64.3894 51.9251 64.5198 51.9459 64.6555 52.019C65.1147 52.2695 65.5479 52.4365 65.9549 52.52C66.3724 52.6139 66.7585 52.6609 67.1134 52.6609C67.844 52.6609 68.3919 52.473 68.7572 52.0973C69.1225 51.732 69.3051 51.1893 69.3051 50.4691V48.8723H69.446C69.2895 49.4463 68.9607 49.9003 68.4597 50.2343C67.9588 50.5683 67.3795 50.7353 66.722 50.7353C66.0332 50.7353 65.433 50.5787 64.9216 50.2656C64.4102 49.9421 64.0136 49.4985 63.7318 48.9349C63.45 48.3609 63.3091 47.6929 63.3091 46.931C63.3091 46.357 63.3874 45.8404 63.544 45.3812C63.711 44.9219 63.9406 44.5253 64.2328 44.1914C64.5355 43.8574 64.8955 43.6017 65.313 43.4243C65.7409 43.2364 66.2106 43.1425 66.722 43.1425C67.39 43.1425 67.9692 43.3094 68.4597 43.6434C68.9607 43.9774 69.2842 44.4314 69.4304 45.0054L69.2738 45.2716V43.9722C69.2738 43.7113 69.3416 43.513 69.4773 43.3773C69.6234 43.2416 69.8165 43.1738 70.0566 43.1738C70.3071 43.1738 70.5001 43.2416 70.6358 43.3773C70.7715 43.513 70.8393 43.7113 70.8393 43.9722V50.2813C70.8393 51.4711 70.5314 52.3686 69.9157 52.974C69.2999 53.5793 68.4023 53.882 67.223 53.882ZM67.0977 49.4985C67.5569 49.4985 67.9483 49.3941 68.2719 49.1854C68.5954 48.9767 68.8459 48.6792 69.0233 48.293C69.2007 47.9069 69.2895 47.4529 69.2895 46.931C69.2895 46.1483 69.0912 45.5273 68.6946 45.0681C68.3084 44.6088 67.7761 44.3792 67.0977 44.3792C66.6489 44.3792 66.2628 44.4836 65.9392 44.6923C65.6157 44.9011 65.36 45.1985 65.1721 45.5847C64.9947 45.9604 64.906 46.4092 64.906 46.931C64.906 47.7242 65.1043 48.3504 65.5009 48.8097C65.8975 49.2689 66.4298 49.4985 67.0977 49.4985ZM73.8412 51.0327C73.5907 51.0327 73.3977 50.9649 73.262 50.8292C73.1263 50.6831 73.0585 50.4848 73.0585 50.2343V43.9722C73.0585 43.7113 73.1263 43.513 73.262 43.3773C73.3977 43.2416 73.5855 43.1738 73.8256 43.1738C74.0761 43.1738 74.2639 43.2416 74.3892 43.3773C74.5248 43.513 74.5927 43.7113 74.5927 43.9722V45.1933L74.4205 44.9115C74.6501 44.327 75.0102 43.8887 75.5007 43.5965C75.9912 43.2938 76.5548 43.1425 77.1915 43.1425C77.7968 43.1425 78.2978 43.2573 78.6944 43.4869C79.1014 43.706 79.4041 44.0452 79.6024 44.5045C79.8007 44.9533 79.8998 45.5221 79.8998 46.2109V50.2343C79.8998 50.4848 79.832 50.6831 79.6963 50.8292C79.5606 50.9649 79.3675 51.0327 79.117 51.0327C78.8561 51.0327 78.6578 50.9649 78.5221 50.8292C78.3865 50.6831 78.3186 50.4848 78.3186 50.2343V46.3048C78.3186 45.6473 78.1882 45.1672 77.9272 44.8645C77.6768 44.5619 77.2802 44.4105 76.7374 44.4105C76.1008 44.4105 75.5894 44.6088 75.2032 45.0054C74.8275 45.402 74.6396 45.9343 74.6396 46.6023V50.2343C74.6396 50.7666 74.3735 51.0327 73.8412 51.0327ZM82.6109 47.385C82.423 47.385 82.2665 47.3224 82.1412 47.1972C82.016 47.0719 81.9533 46.9206 81.9533 46.7432C81.9533 46.5553 82.016 46.404 82.1412 46.2892C82.2665 46.1639 82.423 46.1013 82.6109 46.1013H86.055C86.2325 46.1013 86.3838 46.1639 86.509 46.2892C86.6343 46.404 86.6969 46.5553 86.6969 46.7432C86.6969 46.9206 86.6343 47.0719 86.509 47.1972C86.3838 47.3224 86.2325 47.385 86.055 47.385H82.6109ZM92.3384 51.064C91.5661 51.064 90.8981 50.9023 90.3345 50.5787C89.7814 50.2552 89.3483 49.7959 89.0351 49.201C88.722 48.6061 88.5655 47.9069 88.5655 47.1032C88.5655 46.4875 88.6542 45.9395 88.8316 45.4594C89.0091 44.9793 89.2595 44.5671 89.5831 44.2227C89.9171 43.8678 90.3137 43.6017 90.7729 43.4243C91.2425 43.2364 91.7644 43.1425 92.3384 43.1425C93.1003 43.1425 93.7578 43.3042 94.311 43.6278C94.8746 43.9513 95.3129 44.4105 95.626 45.0054C95.9391 45.5899 96.0957 46.2892 96.0957 47.1032C96.0957 47.7086 96.007 48.2565 95.8295 48.747C95.6521 49.2376 95.3964 49.655 95.0624 49.9995C94.7389 50.3439 94.3423 50.61 93.8726 50.7979C93.4134 50.9753 92.902 51.064 92.3384 51.064ZM92.3384 49.8429C92.7663 49.8429 93.142 49.7385 93.4656 49.5298C93.7891 49.3211 94.0396 49.0132 94.217 48.6061C94.4049 48.1991 94.4988 47.6981 94.4988 47.1032C94.4988 46.2057 94.3005 45.5273 93.9039 45.0681C93.5073 44.6088 92.9855 44.3792 92.3384 44.3792C91.9001 44.3792 91.5191 44.4836 91.1956 44.6923C90.872 44.8906 90.6163 45.1933 90.4285 45.6003C90.251 46.0074 90.1623 46.5083 90.1623 47.1032C90.1623 47.9904 90.3606 48.6688 90.7572 49.1384C91.1538 49.6081 91.6809 49.8429 92.3384 49.8429ZM98.6542 51.0327C98.4037 51.0327 98.2106 50.9649 98.075 50.8292C97.9393 50.6831 97.8714 50.4848 97.8714 50.2343V43.9722C97.8714 43.7113 97.9393 43.513 98.075 43.3773C98.2106 43.2416 98.3985 43.1738 98.6385 43.1738C98.889 43.1738 99.0769 43.2416 99.2021 43.3773C99.3378 43.513 99.4057 43.7113 99.4057 43.9722V45.1933L99.2334 44.9115C99.4631 44.327 99.8231 43.8887 100.314 43.5965C100.804 43.2938 101.368 43.1425 102.004 43.1425C102.61 43.1425 103.111 43.2573 103.507 43.4869C103.914 43.706 104.217 44.0452 104.415 44.5045C104.614 44.9533 104.713 45.5221 104.713 46.2109V50.2343C104.713 50.4848 104.645 50.6831 104.509 50.8292C104.374 50.9649 104.181 51.0327 103.93 51.0327C103.669 51.0327 103.471 50.9649 103.335 50.8292C103.199 50.6831 103.132 50.4848 103.132 50.2343V46.3048C103.132 45.6473 103.001 45.1672 102.74 44.8645C102.49 44.5619 102.093 44.4105 101.55 44.4105C100.914 44.4105 100.402 44.6088 100.016 45.0054C99.6405 45.402 99.4526 45.9343 99.4526 46.6023V50.2343C99.4526 50.7666 99.1865 51.0327 98.6542 51.0327Z" fill="#0F8445"/>
<path d="M98.4765 6.87697C98.3535 6.87697 98.2304 6.8462 98.1227 6.78466C95.1688 5.26158 92.615 4.61543 89.5535 4.61543C86.5073 4.61543 83.615 5.33851 80.9842 6.78466C80.615 6.98466 80.1534 6.8462 79.9381 6.47697C79.8421 6.29704 79.8206 6.08665 79.8781 5.89102C79.9357 5.69539 80.0677 5.53015 80.2458 5.43081C83.1073 3.87697 86.2458 3.07697 89.5535 3.07697C92.8304 3.07697 95.6919 3.80004 98.8304 5.41543C99.215 5.61543 99.3535 6.07697 99.1535 6.4462C99.0926 6.57445 98.9968 6.68292 98.8771 6.75913C98.7573 6.83533 98.6185 6.87618 98.4765 6.87697ZM76.4611 14.9539C76.3193 14.9552 76.1799 14.9172 76.0584 14.8442C75.9368 14.7711 75.8379 14.6658 75.7726 14.5399C75.7073 14.414 75.6781 14.2725 75.6883 14.131C75.6985 13.9896 75.7476 13.8537 75.8304 13.7385C77.3534 11.5847 79.2919 9.89236 81.5996 8.70774C86.4304 6.21543 92.615 6.20005 97.4612 8.69236C99.7689 9.87698 101.707 11.5539 103.23 13.6924C103.289 13.775 103.331 13.8686 103.354 13.9676C103.377 14.0666 103.38 14.1692 103.363 14.2693C103.345 14.3694 103.309 14.4652 103.254 14.551C103.2 14.6368 103.129 14.711 103.046 14.7693C102.692 15.0154 102.215 14.9385 101.969 14.5847C100.622 12.6776 98.832 11.1255 96.7535 10.0616C92.3381 7.80005 86.6919 7.80005 82.2919 10.077C80.1996 11.1539 78.4457 12.6924 77.0611 14.6308C76.9381 14.8462 76.7073 14.9539 76.4611 14.9539ZM86.0765 33.5232C85.9756 33.5244 85.8756 33.5045 85.7829 33.4648C85.6901 33.425 85.6068 33.3663 85.5381 33.2924C84.1996 31.9539 83.4765 31.0924 82.4458 29.2308C81.3842 27.3385 80.8304 25.0308 80.8304 22.5539C80.8304 17.9847 84.7381 14.2616 89.5381 14.2616C94.3381 14.2616 98.2458 17.9847 98.2458 22.5539C98.2458 22.9847 97.9073 23.3231 97.4765 23.3231C97.0458 23.3231 96.7073 22.9847 96.7073 22.5539C96.7073 18.8308 93.4919 15.8001 89.5381 15.8001C85.5842 15.8001 82.3688 18.8308 82.3688 22.5539C82.3688 24.7693 82.8611 26.8155 83.7996 28.477C84.7842 30.2462 85.4611 31.0001 86.6458 32.2001C86.9381 32.5078 86.9381 32.9847 86.6458 33.2924C86.4765 33.4462 86.2765 33.5232 86.0765 33.5232ZM97.1073 30.677C95.2765 30.677 93.6612 30.2155 92.3381 29.3078C90.0458 27.7539 88.6765 25.2308 88.6765 22.5539C88.6765 22.1231 89.015 21.7847 89.4458 21.7847C89.8765 21.7847 90.215 22.1231 90.215 22.5539C90.215 24.7232 91.3227 26.7693 93.1996 28.0308C94.2919 28.7693 95.5688 29.1232 97.1073 29.1232C97.4765 29.1232 98.0919 29.077 98.7073 28.9693C99.1227 28.8924 99.5227 29.1693 99.5996 29.6001C99.6765 30.0155 99.3996 30.4155 98.9689 30.4924C98.0919 30.6616 97.3227 30.677 97.1073 30.677ZM94.015 33.8462C93.9535 33.8462 93.8765 33.8309 93.815 33.8155C91.3688 33.1385 89.7688 32.2309 88.0919 30.5847C87.0293 29.5354 86.1866 28.2847 85.6134 26.9057C85.0401 25.5268 84.7478 24.0473 84.7534 22.5539C84.7534 20.0616 86.8765 18.0308 89.4919 18.0308C92.1073 18.0308 94.2304 20.0616 94.2304 22.5539C94.2304 24.2001 95.6612 25.5385 97.4304 25.5385C99.1996 25.5385 100.63 24.2001 100.63 22.5539C100.63 16.7539 95.6304 12.0462 89.4765 12.0462C85.1073 12.0462 81.1073 14.477 79.3073 18.2462C78.7073 19.4924 78.3996 20.9539 78.3996 22.5539C78.3996 23.7539 78.5073 25.6462 79.4304 28.1078C79.5842 28.5078 79.3842 28.9539 78.9842 29.0924C78.5842 29.2462 78.1381 29.0308 77.9996 28.6462C77.2583 26.7005 76.8777 24.636 76.8765 22.5539C76.8765 20.7078 77.2304 19.0308 77.9227 17.5693C79.9688 13.277 84.5073 10.4924 89.4765 10.4924C96.4765 10.4924 102.169 15.8924 102.169 22.5385C102.169 25.0308 100.046 27.0616 97.4304 27.0616C94.815 27.0616 92.6919 25.0308 92.6919 22.5385C92.6919 20.8924 91.2612 19.5539 89.4919 19.5539C87.7227 19.5539 86.2919 20.8924 86.2919 22.5385C86.2919 25.1693 87.3073 27.6308 89.1688 29.477C90.6304 30.9232 92.0304 31.7232 94.1996 32.3232C94.615 32.4309 94.8458 32.8616 94.7381 33.2616C94.6612 33.6155 94.3381 33.8462 94.015 33.8462Z" fill="#0F8445"/>
</svg>
