<svg width="173" height="34" viewBox="0 0 173 34" fill="none" xmlns="http://www.w3.org/2000/svg">
<rect x="50.7456" y="15.1072" width="20" height="6" rx="3" fill="#0F8445"/>
<rect x="50.7456" y="2.10724" width="6" height="31" rx="3" fill="#FEBD1E"/>
<rect x="3.74561" y="15.1072" width="14" height="6" rx="3" fill="#0F8445"/>
<rect x="53.6705" y="0.917053" width="6" height="22.9148" rx="3" transform="rotate(44.0242 53.6705 0.917053)" fill="#0F8445"/>
<rect x="26.7456" y="2.10724" width="6" height="31" rx="3" fill="#FEBD1E"/>
<rect x="0.745605" y="1.84955" width="6" height="31" rx="3" fill="#FEBD1E"/>
<rect x="25.4879" y="5.09216" width="6" height="23.0147" rx="3" transform="rotate(-45 25.4879 5.09216)" fill="#0F8445"/>
<rect x="51.7456" y="2.10724" width="19" height="6" rx="3" fill="#0F8445"/>
<rect x="0.745605" y="1.84955" width="17" height="6" rx="3" fill="#0F8445"/>
<path d="M66.7456 15.1072V21.1072C79.7456 21.1072 78.7456 2.10724 66.7456 2.10724V8.10724C71.7456 8.10724 71.7456 15.1072 66.7456 15.1072Z" fill="#0F8445"/>
<path d="M14.7456 15.1072V21.1072C27.7456 21.1072 26.7456 1.84955 14.7456 1.84955V7.84955C19.7456 7.84955 19.7456 15.1072 14.7456 15.1072Z" fill="#0F8445"/>
<path d="M81.1718 16.0331C81.0415 16.0331 80.9399 15.9966 80.8669 15.9237C80.7992 15.8507 80.7653 15.7491 80.7653 15.6188V10.8822C80.7653 10.7467 80.8018 10.6451 80.8748 10.5773C80.9477 10.5044 81.0493 10.4679 81.1796 10.4679H83.0477C83.6417 10.4679 84.1003 10.6164 84.4233 10.9134C84.7464 11.2053 84.908 11.6169 84.908 12.1484C84.908 12.6851 84.7464 13.102 84.4233 13.399C84.1003 13.6908 83.6417 13.8367 83.0477 13.8367H81.5782V15.6188C81.5782 15.7491 81.5443 15.8507 81.4766 15.9237C81.4089 15.9966 81.3073 16.0331 81.1718 16.0331ZM81.5782 13.188H82.9304C83.3212 13.188 83.6157 13.102 83.8137 12.93C84.0169 12.7529 84.1185 12.4923 84.1185 12.1484C84.1185 11.8097 84.0169 11.5544 83.8137 11.3824C83.6157 11.2053 83.3212 11.1167 82.9304 11.1167H81.5782V13.188ZM86.1867 16.0331C86.0564 16.0331 85.9548 15.9966 85.8819 15.9237C85.8141 15.8507 85.7803 15.7491 85.7803 15.6188V10.8822C85.7803 10.7467 85.8167 10.6451 85.8897 10.5773C85.9626 10.5044 86.0643 10.4679 86.1945 10.4679H88.0626C88.6566 10.4679 89.1152 10.6086 89.4383 10.89C89.7613 11.1714 89.9229 11.57 89.9229 12.0859C89.9229 12.4194 89.8499 12.706 89.704 12.9457C89.5581 13.1854 89.3445 13.3678 89.0631 13.4928C88.7869 13.6179 88.4534 13.6804 88.0626 13.6804L88.133 13.571H88.3362C88.5446 13.571 88.7244 13.6231 88.8755 13.7273C89.0318 13.8315 89.1725 13.9983 89.2976 14.2275L89.9698 15.4782C90.0219 15.5719 90.0453 15.6631 90.0401 15.7517C90.0401 15.8351 90.0089 15.9028 89.9463 15.9549C89.889 16.0071 89.8056 16.0331 89.6962 16.0331C89.5816 16.0331 89.4878 16.0097 89.4148 15.9628C89.3471 15.9107 89.2846 15.8351 89.2272 15.7361L88.4065 14.2197C88.2971 14.0165 88.172 13.881 88.0313 13.8133C87.8907 13.7403 87.7057 13.7039 87.4764 13.7039H86.5932V15.6188C86.5932 15.7491 86.5593 15.8507 86.4915 15.9237C86.4238 15.9966 86.3222 16.0331 86.1867 16.0331ZM86.5932 13.0942H87.9297C88.3258 13.0942 88.6254 13.0108 88.8286 12.8441C89.0318 12.6773 89.1334 12.4298 89.1334 12.1015C89.1334 11.7784 89.0318 11.5335 88.8286 11.3668C88.6254 11.2 88.3258 11.1167 87.9297 11.1167H86.5932V13.0942ZM93.4236 16.0487C92.9025 16.0487 92.4466 15.9341 92.0558 15.7048C91.6701 15.4703 91.3705 15.1421 91.1569 14.72C90.9484 14.2927 90.8442 13.7924 90.8442 13.2192C90.8442 12.7867 90.9042 12.3985 91.024 12.0546C91.1439 11.7055 91.3158 11.4085 91.5399 11.1636C91.7639 10.9134 92.0349 10.7233 92.3528 10.593C92.6706 10.4627 93.0276 10.3976 93.4236 10.3976C93.9499 10.3976 94.4058 10.5122 94.7914 10.7415C95.1771 10.9708 95.4741 11.2964 95.6825 11.7185C95.8961 12.1406 96.003 12.6382 96.003 13.2114C96.003 13.6439 95.943 14.0347 95.8232 14.3839C95.7033 14.733 95.5288 15.0326 95.2995 15.2827C95.0754 15.5329 94.8045 15.7231 94.4866 15.8533C94.1688 15.9836 93.8144 16.0487 93.4236 16.0487ZM93.4236 15.3453C93.7884 15.3453 94.0984 15.2619 94.3537 15.0952C94.6143 14.9284 94.8123 14.6861 94.9478 14.3682C95.0885 14.0504 95.1588 13.6674 95.1588 13.2192C95.1588 12.547 95.0077 12.026 94.7055 11.656C94.4032 11.286 93.9759 11.101 93.4236 11.101C93.0588 11.101 92.7462 11.1844 92.4856 11.3512C92.2303 11.5127 92.0323 11.7524 91.8916 12.0703C91.7561 12.3881 91.6884 12.7711 91.6884 13.2192C91.6884 13.8862 91.8395 14.4073 92.1417 14.7825C92.4492 15.1577 92.8765 15.3453 93.4236 15.3453ZM96.481 16.0253C96.3612 16.0305 96.2674 15.9992 96.1997 15.9315C96.1319 15.8638 96.098 15.7778 96.098 15.6736C96.098 15.5954 96.1241 15.525 96.1762 15.4625C96.2231 15.4 96.2935 15.3661 96.3872 15.3609L96.6296 15.3453C96.8797 15.3244 97.0699 15.2411 97.2001 15.0952C97.3304 14.944 97.3955 14.7356 97.3955 14.4699V10.8197C97.3955 10.6842 97.4294 10.5826 97.4972 10.5148C97.5649 10.4471 97.6639 10.4132 97.7942 10.4132C97.9245 10.4132 98.0235 10.4471 98.0912 10.5148C98.1641 10.5826 98.2006 10.6842 98.2006 10.8197V14.4699C98.2006 14.7825 98.1433 15.0509 98.0287 15.2749C97.9192 15.4938 97.7577 15.6657 97.5441 15.7908C97.3304 15.9159 97.0647 15.9888 96.7468 16.0097L96.481 16.0253ZM99.9194 15.9784C99.7787 15.9784 99.6692 15.9419 99.5911 15.869C99.5181 15.7908 99.4816 15.6814 99.4816 15.5407V10.9056C99.4816 10.7649 99.5181 10.6581 99.5911 10.5852C99.6692 10.507 99.7787 10.4679 99.9194 10.4679H102.772C102.882 10.4679 102.965 10.4966 103.022 10.5539C103.08 10.606 103.108 10.6842 103.108 10.7884C103.108 10.8978 103.08 10.9812 103.022 11.0385C102.965 11.0958 102.882 11.1245 102.772 11.1245H100.263V12.8519H102.6C102.715 12.8519 102.798 12.8805 102.85 12.9379C102.908 12.9952 102.936 13.0759 102.936 13.1802C102.936 13.2896 102.908 13.373 102.85 13.4303C102.798 13.4824 102.715 13.5085 102.6 13.5085H100.263V15.3218H102.772C102.882 15.3218 102.965 15.3505 103.022 15.4078C103.08 15.4651 103.108 15.5459 103.108 15.6501C103.108 15.7595 103.08 15.8429 103.022 15.9002C102.965 15.9523 102.882 15.9784 102.772 15.9784H99.9194ZM106.539 16.0487C105.982 16.0487 105.505 15.9341 105.109 15.7048C104.713 15.4755 104.408 15.1499 104.194 14.7278C103.986 14.3005 103.882 13.7977 103.882 13.2192C103.882 12.7867 103.941 12.3985 104.061 12.0546C104.181 11.7055 104.353 11.4085 104.577 11.1636C104.806 10.9134 105.085 10.7233 105.414 10.593C105.747 10.4627 106.122 10.3976 106.539 10.3976C106.847 10.3976 107.141 10.4393 107.422 10.5226C107.709 10.606 107.956 10.7259 108.165 10.8822C108.253 10.9395 108.311 11.0098 108.337 11.0932C108.368 11.1714 108.373 11.2469 108.352 11.3199C108.337 11.3928 108.303 11.4554 108.251 11.5075C108.199 11.5544 108.131 11.5804 108.048 11.5856C107.969 11.5909 107.883 11.5622 107.79 11.4997C107.618 11.3694 107.428 11.273 107.219 11.2105C107.011 11.1479 106.792 11.1167 106.563 11.1167C106.166 11.1167 105.833 11.2 105.562 11.3668C105.291 11.5283 105.085 11.7654 104.945 12.0781C104.804 12.3907 104.734 12.7711 104.734 13.2192C104.734 13.6674 104.804 14.0504 104.945 14.3682C105.085 14.6809 105.291 14.9206 105.562 15.0873C105.833 15.2489 106.166 15.3296 106.563 15.3296C106.792 15.3296 107.011 15.2984 107.219 15.2358C107.433 15.1681 107.633 15.0691 107.821 14.9388C107.915 14.8815 107.998 14.8555 108.071 14.8607C108.149 14.8659 108.214 14.8919 108.266 14.9388C108.319 14.9857 108.352 15.0457 108.368 15.1186C108.389 15.1863 108.386 15.2593 108.36 15.3375C108.339 15.4104 108.29 15.4729 108.212 15.525C107.998 15.697 107.745 15.8273 107.454 15.9159C107.162 16.0044 106.857 16.0487 106.539 16.0487ZM111.026 16.0331C110.895 16.0331 110.794 15.9966 110.721 15.9237C110.653 15.8507 110.619 15.7491 110.619 15.6188V11.1479H108.962C108.853 11.1479 108.767 11.1193 108.704 11.062C108.642 10.9994 108.611 10.9134 108.611 10.804C108.611 10.6946 108.642 10.6112 108.704 10.5539C108.767 10.4966 108.853 10.4679 108.962 10.4679H113.081C113.196 10.4679 113.285 10.4966 113.347 10.5539C113.41 10.6112 113.441 10.6946 113.441 10.804C113.441 10.9134 113.41 10.9994 113.347 11.062C113.285 11.1193 113.196 11.1479 113.081 11.1479H111.424V15.6188C111.424 15.7491 111.39 15.8507 111.323 15.9237C111.26 15.9966 111.161 16.0331 111.026 16.0331ZM116.505 16.0331C116.385 16.0331 116.291 15.9992 116.224 15.9315C116.161 15.8638 116.13 15.77 116.13 15.6501V10.7962C116.13 10.6711 116.164 10.5773 116.231 10.5148C116.299 10.4471 116.39 10.4132 116.505 10.4132C116.614 10.4132 116.698 10.434 116.755 10.4757C116.818 10.5122 116.875 10.58 116.927 10.679L118.975 14.5011H118.733L120.773 10.679C120.825 10.58 120.879 10.5122 120.937 10.4757C120.994 10.434 121.077 10.4132 121.187 10.4132C121.302 10.4132 121.39 10.4471 121.453 10.5148C121.515 10.5773 121.546 10.6711 121.546 10.7962V15.6501C121.546 15.77 121.515 15.8638 121.453 15.9315C121.395 15.9992 121.307 16.0331 121.187 16.0331C121.067 16.0331 120.976 15.9992 120.913 15.9315C120.851 15.8638 120.82 15.77 120.82 15.6501V11.6169H120.991L119.178 14.9701C119.136 15.0483 119.092 15.1056 119.045 15.1421C118.998 15.1785 118.933 15.1968 118.85 15.1968C118.766 15.1968 118.699 15.1785 118.647 15.1421C118.594 15.1004 118.548 15.043 118.506 14.9701L116.677 11.6091H116.864V15.6501C116.864 15.77 116.833 15.8638 116.771 15.9315C116.713 15.9992 116.625 16.0331 116.505 16.0331ZM122.815 16.0331C122.711 16.0331 122.628 16.0097 122.565 15.9628C122.503 15.9159 122.466 15.8533 122.456 15.7752C122.445 15.697 122.461 15.6084 122.503 15.5094L124.621 10.7571C124.673 10.6321 124.738 10.5435 124.816 10.4914C124.9 10.4393 124.991 10.4132 125.09 10.4132C125.184 10.4132 125.27 10.4393 125.348 10.4914C125.431 10.5435 125.499 10.6321 125.551 10.7571L127.669 15.5094C127.716 15.6084 127.734 15.6996 127.724 15.783C127.713 15.8611 127.68 15.9237 127.622 15.9706C127.565 16.0123 127.484 16.0331 127.38 16.0331C127.265 16.0331 127.174 16.0044 127.106 15.9471C127.039 15.8898 126.979 15.8012 126.927 15.6814L126.379 14.4151L126.747 14.634H123.417L123.777 14.4151L123.237 15.6814C123.185 15.8064 123.128 15.8976 123.065 15.9549C123.003 16.0071 122.919 16.0331 122.815 16.0331ZM125.074 11.3668L123.894 14.165L123.698 13.9774H126.458L126.278 14.165L125.09 11.3668H125.074ZM128.985 16.0331C128.865 16.0331 128.771 15.9992 128.703 15.9315C128.636 15.8638 128.602 15.7674 128.602 15.6423V10.8197C128.602 10.6894 128.633 10.5904 128.696 10.5226C128.763 10.4497 128.852 10.4132 128.961 10.4132C129.055 10.4132 129.126 10.4314 129.172 10.4679C129.225 10.4992 129.284 10.5591 129.352 10.6477L132.573 14.8919H132.377V10.7962C132.377 10.6764 132.408 10.5826 132.471 10.5148C132.539 10.4471 132.632 10.4132 132.752 10.4132C132.877 10.4132 132.971 10.4471 133.034 10.5148C133.096 10.5826 133.127 10.6764 133.127 10.7962V15.6501C133.127 15.77 133.096 15.8638 133.034 15.9315C132.976 15.9992 132.898 16.0331 132.799 16.0331C132.705 16.0331 132.627 16.0149 132.565 15.9784C132.507 15.9419 132.445 15.8794 132.377 15.7908L129.172 11.5544H129.352V15.6423C129.352 15.7674 129.321 15.8638 129.258 15.9315C129.196 15.9992 129.105 16.0331 128.985 16.0331ZM134.379 16.0331C134.275 16.0331 134.192 16.0097 134.129 15.9628C134.067 15.9159 134.03 15.8533 134.02 15.7752C134.009 15.697 134.025 15.6084 134.067 15.5094L136.185 10.7571C136.237 10.6321 136.302 10.5435 136.38 10.4914C136.464 10.4393 136.555 10.4132 136.654 10.4132C136.748 10.4132 136.834 10.4393 136.912 10.4914C136.995 10.5435 137.063 10.6321 137.115 10.7571L139.233 15.5094C139.28 15.6084 139.298 15.6996 139.288 15.783C139.278 15.8611 139.244 15.9237 139.186 15.9706C139.129 16.0123 139.048 16.0331 138.944 16.0331C138.829 16.0331 138.738 16.0044 138.67 15.9471C138.603 15.8898 138.543 15.8012 138.491 15.6814L137.944 14.4151L138.311 14.634H134.981L135.341 14.4151L134.801 15.6814C134.749 15.8064 134.692 15.8976 134.629 15.9549C134.567 16.0071 134.484 16.0331 134.379 16.0331ZM136.638 11.3668L135.458 14.165L135.263 13.9774H138.022L137.842 14.165L136.654 11.3668H136.638ZM142.638 16.0487C142.039 16.0487 141.534 15.9367 141.122 15.7126C140.71 15.4834 140.398 15.1577 140.184 14.7356C139.976 14.3135 139.872 13.8107 139.872 13.2271C139.872 12.7894 139.931 12.3985 140.051 12.0546C140.176 11.7055 140.354 11.4085 140.583 11.1636C140.817 10.9134 141.101 10.7233 141.435 10.593C141.773 10.4627 142.156 10.3976 142.584 10.3976C142.896 10.3976 143.204 10.4393 143.506 10.5226C143.808 10.6008 144.084 10.7311 144.335 10.9134C144.408 10.9656 144.454 11.0255 144.475 11.0932C144.496 11.161 144.496 11.2313 144.475 11.3043C144.46 11.372 144.426 11.4319 144.374 11.484C144.327 11.5361 144.267 11.5674 144.194 11.5778C144.126 11.5883 144.051 11.5674 143.967 11.5153C143.764 11.3746 143.55 11.273 143.326 11.2105C143.102 11.1427 142.855 11.1089 142.584 11.1089C142.177 11.1089 141.833 11.1922 141.552 11.359C141.276 11.5257 141.067 11.768 140.927 12.0859C140.786 12.3985 140.716 12.7789 140.716 13.2271C140.716 13.9201 140.88 14.4464 141.208 14.806C141.536 15.1655 142.024 15.3453 142.67 15.3453C142.904 15.3453 143.133 15.3244 143.358 15.2827C143.587 15.2358 143.806 15.1707 144.014 15.0873L143.85 15.4938V13.6726H142.842C142.737 13.6726 142.654 13.6465 142.592 13.5944C142.534 13.5371 142.506 13.4589 142.506 13.3599C142.506 13.2609 142.534 13.188 142.592 13.1411C142.654 13.089 142.737 13.0629 142.842 13.0629H144.194C144.303 13.0629 144.387 13.0916 144.444 13.1489C144.501 13.2062 144.53 13.2896 144.53 13.399V15.3687C144.53 15.4625 144.512 15.5433 144.475 15.611C144.444 15.6736 144.389 15.7205 144.311 15.7517C144.087 15.8403 143.824 15.9133 143.522 15.9706C143.219 16.0227 142.925 16.0487 142.638 16.0487ZM146.214 15.9784C146.073 15.9784 145.964 15.9419 145.886 15.869C145.813 15.7908 145.776 15.6814 145.776 15.5407V10.9056C145.776 10.7649 145.813 10.6581 145.886 10.5852C145.964 10.507 146.073 10.4679 146.214 10.4679H149.067C149.176 10.4679 149.26 10.4966 149.317 10.5539C149.374 10.606 149.403 10.6842 149.403 10.7884C149.403 10.8978 149.374 10.9812 149.317 11.0385C149.26 11.0958 149.176 11.1245 149.067 11.1245H146.558V12.8519H148.895C149.01 12.8519 149.093 12.8805 149.145 12.9379C149.202 12.9952 149.231 13.0759 149.231 13.1802C149.231 13.2896 149.202 13.373 149.145 13.4303C149.093 13.4824 149.01 13.5085 148.895 13.5085H146.558V15.3218H149.067C149.176 15.3218 149.26 15.3505 149.317 15.4078C149.374 15.4651 149.403 15.5459 149.403 15.6501C149.403 15.7595 149.374 15.8429 149.317 15.9002C149.26 15.9523 149.176 15.9784 149.067 15.9784H146.214ZM150.77 16.0331C150.65 16.0331 150.556 15.9992 150.488 15.9315C150.426 15.8638 150.395 15.77 150.395 15.6501V10.7962C150.395 10.6711 150.429 10.5773 150.496 10.5148C150.564 10.4471 150.655 10.4132 150.77 10.4132C150.879 10.4132 150.963 10.434 151.02 10.4757C151.082 10.5122 151.14 10.58 151.192 10.679L153.24 14.5011H152.997L155.038 10.679C155.09 10.58 155.144 10.5122 155.202 10.4757C155.259 10.434 155.342 10.4132 155.452 10.4132C155.566 10.4132 155.655 10.4471 155.718 10.5148C155.78 10.5773 155.811 10.6711 155.811 10.7962V15.6501C155.811 15.77 155.78 15.8638 155.718 15.9315C155.66 15.9992 155.572 16.0331 155.452 16.0331C155.332 16.0331 155.241 15.9992 155.178 15.9315C155.116 15.8638 155.084 15.77 155.084 15.6501V11.6169H155.256L153.443 14.9701C153.401 15.0483 153.357 15.1056 153.31 15.1421C153.263 15.1785 153.198 15.1968 153.115 15.1968C153.031 15.1968 152.964 15.1785 152.911 15.1421C152.859 15.1004 152.812 15.043 152.771 14.9701L150.942 11.6091H151.129V15.6501C151.129 15.77 151.098 15.8638 151.036 15.9315C150.978 15.9992 150.89 16.0331 150.77 16.0331ZM157.549 15.9784C157.408 15.9784 157.299 15.9419 157.221 15.869C157.148 15.7908 157.111 15.6814 157.111 15.5407V10.9056C157.111 10.7649 157.148 10.6581 157.221 10.5852C157.299 10.507 157.408 10.4679 157.549 10.4679H160.402C160.511 10.4679 160.595 10.4966 160.652 10.5539C160.709 10.606 160.738 10.6842 160.738 10.7884C160.738 10.8978 160.709 10.9812 160.652 11.0385C160.595 11.0958 160.511 11.1245 160.402 11.1245H157.893V12.8519H160.23C160.345 12.8519 160.428 12.8805 160.48 12.9379C160.538 12.9952 160.566 13.0759 160.566 13.1802C160.566 13.2896 160.538 13.373 160.48 13.4303C160.428 13.4824 160.345 13.5085 160.23 13.5085H157.893V15.3218H160.402C160.511 15.3218 160.595 15.3505 160.652 15.4078C160.709 15.4651 160.738 15.5459 160.738 15.6501C160.738 15.7595 160.709 15.8429 160.652 15.9002C160.595 15.9523 160.511 15.9784 160.402 15.9784H157.549ZM162.097 16.0331C161.977 16.0331 161.884 15.9992 161.816 15.9315C161.748 15.8638 161.714 15.7674 161.714 15.6423V10.8197C161.714 10.6894 161.745 10.5904 161.808 10.5226C161.876 10.4497 161.964 10.4132 162.074 10.4132C162.167 10.4132 162.238 10.4314 162.285 10.4679C162.337 10.4992 162.397 10.5591 162.465 10.6477L165.685 14.8919H165.489V10.7962C165.489 10.6764 165.521 10.5826 165.583 10.5148C165.651 10.4471 165.745 10.4132 165.865 10.4132C165.99 10.4132 166.083 10.4471 166.146 10.5148C166.209 10.5826 166.24 10.6764 166.24 10.7962V15.6501C166.24 15.77 166.209 15.8638 166.146 15.9315C166.089 15.9992 166.01 16.0331 165.911 16.0331C165.818 16.0331 165.74 16.0149 165.677 15.9784C165.62 15.9419 165.557 15.8794 165.489 15.7908L162.285 11.5544H162.465V15.6423C162.465 15.7674 162.433 15.8638 162.371 15.9315C162.308 15.9992 162.217 16.0331 162.097 16.0331ZM169.274 16.0331C169.143 16.0331 169.042 15.9966 168.969 15.9237C168.901 15.8507 168.867 15.7491 168.867 15.6188V11.1479H167.21C167.101 11.1479 167.015 11.1193 166.952 11.062C166.89 10.9994 166.859 10.9134 166.859 10.804C166.859 10.6946 166.89 10.6112 166.952 10.5539C167.015 10.4966 167.101 10.4679 167.21 10.4679H171.329C171.444 10.4679 171.533 10.4966 171.595 10.5539C171.658 10.6112 171.689 10.6946 171.689 10.804C171.689 10.9134 171.658 10.9994 171.595 11.062C171.533 11.1193 171.444 11.1479 171.329 11.1479H169.672V15.6188C169.672 15.7491 169.639 15.8507 169.571 15.9237C169.508 15.9966 169.409 16.0331 169.274 16.0331ZM81.1718 24.0331C81.0415 24.0331 80.9399 23.9966 80.8669 23.9237C80.7992 23.8507 80.7653 23.7491 80.7653 23.6188V18.8822C80.7653 18.7467 80.8018 18.6451 80.8748 18.5773C80.9477 18.5044 81.0493 18.4679 81.1796 18.4679H83.0477C83.6417 18.4679 84.1003 18.6164 84.4233 18.9134C84.7464 19.2053 84.908 19.6169 84.908 20.1484C84.908 20.6851 84.7464 21.102 84.4233 21.399C84.1003 21.6908 83.6417 21.8367 83.0477 21.8367H81.5782V23.6188C81.5782 23.7491 81.5443 23.8507 81.4766 23.9237C81.4089 23.9966 81.3073 24.0331 81.1718 24.0331ZM81.5782 21.188H82.9304C83.3212 21.188 83.6157 21.102 83.8137 20.93C84.0169 20.7529 84.1185 20.4923 84.1185 20.1484C84.1185 19.8097 84.0169 19.5544 83.8137 19.3824C83.6157 19.2053 83.3212 19.1167 82.9304 19.1167H81.5782V21.188ZM86.1945 23.9784C86.0643 23.9784 85.9626 23.9419 85.8897 23.869C85.8167 23.796 85.7803 23.6944 85.7803 23.5641V18.8509C85.7803 18.7154 85.8141 18.6138 85.8819 18.5461C85.9548 18.4731 86.0564 18.4367 86.1867 18.4367C86.317 18.4367 86.416 18.4731 86.4837 18.5461C86.5567 18.6138 86.5932 18.7154 86.5932 18.8509V23.2827H89.0162C89.1308 23.2827 89.2194 23.314 89.282 23.3765C89.3445 23.4339 89.3757 23.5172 89.3757 23.6267C89.3757 23.7361 89.3445 23.8221 89.282 23.8846C89.2194 23.9471 89.1308 23.9784 89.0162 23.9784H86.1945ZM89.9167 24.0331C89.8124 24.0331 89.7291 24.0097 89.6665 23.9628C89.604 23.9159 89.5675 23.8533 89.5571 23.7752C89.5467 23.697 89.5623 23.6084 89.604 23.5094L91.7222 18.7571C91.7743 18.6321 91.8395 18.5435 91.9176 18.4914C92.001 18.4393 92.0922 18.4132 92.1912 18.4132C92.285 18.4132 92.371 18.4393 92.4491 18.4914C92.5325 18.5435 92.6002 18.6321 92.6524 18.7571L94.7706 23.5094C94.8175 23.6084 94.8357 23.6996 94.8253 23.783C94.8149 23.8611 94.781 23.9237 94.7237 23.9706C94.6663 24.0123 94.5856 24.0331 94.4814 24.0331C94.3667 24.0331 94.2755 24.0044 94.2078 23.9471C94.14 23.8898 94.0801 23.8012 94.028 23.6814L93.4809 22.4151L93.8482 22.634H90.5185L90.8781 22.4151L90.3387 23.6814C90.2866 23.8064 90.2293 23.8976 90.1668 23.9549C90.1042 24.0071 90.0209 24.0331 89.9167 24.0331ZM92.1756 19.3668L90.9953 22.165L90.7999 21.9774H93.559L93.3793 22.165L92.1912 19.3668H92.1756ZM96.8511 24.0331C96.7208 24.0331 96.6192 23.9966 96.5463 23.9237C96.4785 23.8507 96.4447 23.7491 96.4447 23.6188V19.1479H94.7876C94.6782 19.1479 94.5922 19.1193 94.5297 19.062C94.4671 18.9994 94.4359 18.9134 94.4359 18.804C94.4359 18.6946 94.4671 18.6112 94.5297 18.5539C94.5922 18.4966 94.6782 18.4679 94.7876 18.4679H98.9068C99.0214 18.4679 99.11 18.4966 99.1725 18.5539C99.2351 18.6112 99.2663 18.6946 99.2663 18.804C99.2663 18.9134 99.2351 18.9994 99.1725 19.062C99.11 19.1193 99.0214 19.1479 98.9068 19.1479H97.2497V23.6188C97.2497 23.7491 97.2159 23.8507 97.1481 23.9237C97.0856 23.9966 96.9866 24.0331 96.8511 24.0331ZM100.308 24.0331C100.173 24.0331 100.066 23.9966 99.988 23.9237C99.915 23.8507 99.8786 23.7439 99.8786 23.6032V18.9056C99.8786 18.7649 99.915 18.6581 99.988 18.5852C100.066 18.507 100.176 18.4679 100.316 18.4679H103.099C103.214 18.4679 103.297 18.4966 103.349 18.5539C103.406 18.606 103.435 18.6842 103.435 18.7884C103.435 18.8978 103.406 18.9812 103.349 19.0385C103.297 19.0958 103.214 19.1245 103.099 19.1245H100.691V20.8831H102.943C103.047 20.8831 103.128 20.9118 103.185 20.9691C103.247 21.0212 103.279 21.0994 103.279 21.2036C103.279 21.313 103.247 21.3964 103.185 21.4537C103.128 21.5111 103.047 21.5397 102.943 21.5397H100.691V23.6032C100.691 23.8898 100.564 24.0331 100.308 24.0331ZM106.484 24.0487C105.963 24.0487 105.507 23.9341 105.116 23.7048C104.73 23.4703 104.431 23.1421 104.217 22.72C104.009 22.2927 103.904 21.7924 103.904 21.2192C103.904 20.7867 103.964 20.3985 104.084 20.0546C104.204 19.7055 104.376 19.4085 104.6 19.1636C104.824 18.9134 105.095 18.7233 105.413 18.593C105.731 18.4627 106.088 18.3976 106.484 18.3976C107.01 18.3976 107.466 18.5122 107.852 18.7415C108.237 18.9708 108.534 19.2964 108.743 19.7185C108.956 20.1406 109.063 20.6382 109.063 21.2114C109.063 21.6439 109.003 22.0347 108.883 22.3839C108.764 22.733 108.589 23.0326 108.36 23.2827C108.136 23.5329 107.865 23.7231 107.547 23.8533C107.229 23.9836 106.875 24.0487 106.484 24.0487ZM106.484 23.3453C106.849 23.3453 107.159 23.2619 107.414 23.0952C107.674 22.9284 107.872 22.6861 108.008 22.3682C108.149 22.0504 108.219 21.6674 108.219 21.2192C108.219 20.547 108.068 20.026 107.766 19.656C107.463 19.286 107.036 19.101 106.484 19.101C106.119 19.101 105.806 19.1844 105.546 19.3512C105.291 19.5127 105.093 19.7524 104.952 20.0703C104.816 20.3881 104.749 20.7711 104.749 21.2192C104.749 21.8862 104.9 22.4073 105.202 22.7825C105.509 23.1577 105.937 23.3453 106.484 23.3453ZM110.559 24.0331C110.429 24.0331 110.327 23.9966 110.254 23.9237C110.187 23.8507 110.153 23.7491 110.153 23.6188V18.8822C110.153 18.7467 110.189 18.6451 110.262 18.5773C110.335 18.5044 110.437 18.4679 110.567 18.4679H112.435C113.029 18.4679 113.488 18.6086 113.811 18.89C114.134 19.1714 114.295 19.57 114.295 20.0859C114.295 20.4194 114.222 20.706 114.076 20.9457C113.931 21.1854 113.717 21.3678 113.436 21.4928C113.159 21.6179 112.826 21.6804 112.435 21.6804L112.505 21.571H112.709C112.917 21.571 113.097 21.6231 113.248 21.7273C113.404 21.8315 113.545 21.9983 113.67 22.2275L114.342 23.4782C114.394 23.5719 114.418 23.6631 114.413 23.7517C114.413 23.8351 114.381 23.9028 114.319 23.9549C114.261 24.0071 114.178 24.0331 114.069 24.0331C113.954 24.0331 113.86 24.0097 113.787 23.9628C113.72 23.9107 113.657 23.8351 113.6 23.7361L112.779 22.2197C112.67 22.0165 112.544 21.881 112.404 21.8133C112.263 21.7403 112.078 21.7039 111.849 21.7039H110.966V23.6188C110.966 23.7491 110.932 23.8507 110.864 23.9237C110.796 23.9966 110.695 24.0331 110.559 24.0331ZM110.966 21.0942H112.302C112.698 21.0942 112.998 21.0108 113.201 20.8441C113.404 20.6773 113.506 20.4298 113.506 20.1015C113.506 19.7784 113.404 19.5335 113.201 19.3668C112.998 19.2 112.698 19.1167 112.302 19.1167H110.966V21.0942ZM115.833 24.0331C115.713 24.0331 115.62 23.9992 115.552 23.9315C115.489 23.8638 115.458 23.77 115.458 23.6501V18.7962C115.458 18.6711 115.492 18.5773 115.56 18.5148C115.627 18.4471 115.719 18.4132 115.833 18.4132C115.943 18.4132 116.026 18.434 116.083 18.4757C116.146 18.5122 116.203 18.58 116.255 18.679L118.303 22.5011H118.061L120.101 18.679C120.153 18.58 120.208 18.5122 120.265 18.4757C120.322 18.434 120.406 18.4132 120.515 18.4132C120.63 18.4132 120.718 18.4471 120.781 18.5148C120.843 18.5773 120.875 18.6711 120.875 18.7962V23.6501C120.875 23.77 120.843 23.8638 120.781 23.9315C120.724 23.9992 120.635 24.0331 120.515 24.0331C120.395 24.0331 120.304 23.9992 120.242 23.9315C120.179 23.8638 120.148 23.77 120.148 23.6501V19.6169H120.32L118.506 22.9701C118.465 23.0483 118.42 23.1056 118.374 23.1421C118.327 23.1785 118.261 23.1968 118.178 23.1968C118.095 23.1968 118.027 23.1785 117.975 23.1421C117.923 23.1004 117.876 23.043 117.834 22.9701L116.005 19.6091H116.193V23.6501C116.193 23.77 116.162 23.8638 116.099 23.9315C116.042 23.9992 115.953 24.0331 115.833 24.0331ZM124.642 24.0331C124.512 24.0331 124.41 23.9966 124.337 23.9237C124.27 23.8507 124.236 23.7491 124.236 23.6188V18.8197C124.236 18.6842 124.27 18.5826 124.337 18.5148C124.41 18.4471 124.512 18.4132 124.642 18.4132C124.772 18.4132 124.871 18.4471 124.939 18.5148C125.012 18.5826 125.049 18.6842 125.049 18.8197V20.9457H125.064L127.464 18.6242C127.542 18.5513 127.615 18.4992 127.683 18.4679C127.756 18.4314 127.836 18.4132 127.925 18.4132C128.045 18.4132 128.131 18.4445 128.183 18.507C128.24 18.5643 128.264 18.6347 128.253 18.718C128.243 18.8014 128.199 18.8822 128.12 18.9603L125.627 21.3365L125.643 20.9379L128.238 23.4391C128.331 23.5277 128.381 23.6188 128.386 23.7126C128.391 23.8064 128.363 23.8846 128.3 23.9471C128.238 24.0044 128.149 24.0331 128.034 24.0331C127.93 24.0331 127.847 24.0123 127.784 23.9706C127.722 23.9289 127.649 23.869 127.565 23.7908L125.064 21.4068H125.049V23.6188C125.049 23.7491 125.015 23.8507 124.947 23.9237C124.879 23.9966 124.778 24.0331 124.642 24.0331ZM129.696 23.9784C129.555 23.9784 129.446 23.9419 129.368 23.869C129.295 23.7908 129.258 23.6814 129.258 23.5407V18.9056C129.258 18.7649 129.295 18.6581 129.368 18.5852C129.446 18.507 129.555 18.4679 129.696 18.4679H132.549C132.658 18.4679 132.742 18.4966 132.799 18.5539C132.856 18.606 132.885 18.6842 132.885 18.7884C132.885 18.8978 132.856 18.9812 132.799 19.0385C132.742 19.0958 132.658 19.1245 132.549 19.1245H130.04V20.8519H132.377C132.492 20.8519 132.575 20.8805 132.627 20.9379C132.684 20.9952 132.713 21.0759 132.713 21.1802C132.713 21.2896 132.684 21.373 132.627 21.4303C132.575 21.4824 132.492 21.5085 132.377 21.5085H130.04V23.3218H132.549C132.658 23.3218 132.742 23.3505 132.799 23.4078C132.856 23.4651 132.885 23.5459 132.885 23.6501C132.885 23.7595 132.856 23.8429 132.799 23.9002C132.742 23.9523 132.658 23.9784 132.549 23.9784H129.696ZM134.252 24.0331C134.132 24.0331 134.038 23.9992 133.97 23.9315C133.908 23.8638 133.877 23.77 133.877 23.6501V18.7962C133.877 18.6711 133.911 18.5773 133.978 18.5148C134.046 18.4471 134.137 18.4132 134.252 18.4132C134.361 18.4132 134.445 18.434 134.502 18.4757C134.565 18.5122 134.622 18.58 134.674 18.679L136.722 22.5011H136.479L138.52 18.679C138.572 18.58 138.626 18.5122 138.684 18.4757C138.741 18.434 138.824 18.4132 138.934 18.4132C139.048 18.4132 139.137 18.4471 139.2 18.5148C139.262 18.5773 139.293 18.6711 139.293 18.7962V23.6501C139.293 23.77 139.262 23.8638 139.2 23.9315C139.142 23.9992 139.054 24.0331 138.934 24.0331C138.814 24.0331 138.723 23.9992 138.66 23.9315C138.598 23.8638 138.566 23.77 138.566 23.6501V19.6169H138.738L136.925 22.9701C136.883 23.0483 136.839 23.1056 136.792 23.1421C136.745 23.1785 136.68 23.1968 136.597 23.1968C136.513 23.1968 136.446 23.1785 136.394 23.1421C136.341 23.1004 136.295 23.043 136.253 22.9701L134.424 19.6091H134.611V23.6501C134.611 23.77 134.58 23.8638 134.518 23.9315C134.46 23.9992 134.372 24.0331 134.252 24.0331ZM141.031 23.9784C140.89 23.9784 140.781 23.9419 140.703 23.869C140.63 23.7908 140.593 23.6814 140.593 23.5407V18.9056C140.593 18.7649 140.63 18.6581 140.703 18.5852C140.781 18.507 140.89 18.4679 141.031 18.4679H143.884C143.993 18.4679 144.077 18.4966 144.134 18.5539C144.192 18.606 144.22 18.6842 144.22 18.7884C144.22 18.8978 144.192 18.9812 144.134 19.0385C144.077 19.0958 143.993 19.1245 143.884 19.1245H141.375V20.8519H143.712C143.827 20.8519 143.91 20.8805 143.962 20.9379C144.02 20.9952 144.048 21.0759 144.048 21.1802C144.048 21.2896 144.02 21.373 143.962 21.4303C143.91 21.4824 143.827 21.5085 143.712 21.5085H141.375V23.3218H143.884C143.993 23.3218 144.077 23.3505 144.134 23.4078C144.192 23.4651 144.22 23.5459 144.22 23.6501C144.22 23.7595 144.192 23.8429 144.134 23.9002C144.077 23.9523 143.993 23.9784 143.884 23.9784H141.031ZM145.579 24.0331C145.459 24.0331 145.366 23.9992 145.298 23.9315C145.23 23.8638 145.196 23.7674 145.196 23.6423V18.8197C145.196 18.6894 145.227 18.5904 145.29 18.5226C145.358 18.4497 145.446 18.4132 145.556 18.4132C145.65 18.4132 145.72 18.4314 145.767 18.4679C145.819 18.4992 145.879 18.5591 145.947 18.6477L149.167 22.8919H148.971V18.7962C148.971 18.6764 149.003 18.5826 149.065 18.5148C149.133 18.4471 149.227 18.4132 149.347 18.4132C149.472 18.4132 149.565 18.4471 149.628 18.5148C149.691 18.5826 149.722 18.6764 149.722 18.7962V23.6501C149.722 23.77 149.691 23.8638 149.628 23.9315C149.571 23.9992 149.493 24.0331 149.394 24.0331C149.3 24.0331 149.222 24.0149 149.159 23.9784C149.102 23.9419 149.039 23.8794 148.971 23.7908L145.767 19.5544H145.947V23.6423C145.947 23.7674 145.915 23.8638 145.853 23.9315C145.79 23.9992 145.699 24.0331 145.579 24.0331ZM150.974 24.0331C150.869 24.0331 150.786 24.0097 150.724 23.9628C150.661 23.9159 150.625 23.8533 150.614 23.7752C150.604 23.697 150.619 23.6084 150.661 23.5094L152.779 18.7571C152.831 18.6321 152.896 18.5435 152.975 18.4914C153.058 18.4393 153.149 18.4132 153.248 18.4132C153.342 18.4132 153.428 18.4393 153.506 18.4914C153.59 18.5435 153.657 18.6321 153.709 18.7571L155.828 23.5094C155.874 23.6084 155.893 23.6996 155.882 23.783C155.872 23.8611 155.838 23.9237 155.781 23.9706C155.723 24.0123 155.643 24.0331 155.538 24.0331C155.424 24.0331 155.333 24.0044 155.265 23.9471C155.197 23.8898 155.137 23.8012 155.085 23.6814L154.538 22.4151L154.905 22.634H151.576L151.935 22.4151L151.396 23.6814C151.344 23.8064 151.286 23.8976 151.224 23.9549C151.161 24.0071 151.078 24.0331 150.974 24.0331ZM153.233 19.3668L152.052 22.165L151.857 21.9774H154.616L154.436 22.165L153.248 19.3668H153.233ZM159.233 24.0487C158.634 24.0487 158.128 23.9367 157.716 23.7126C157.305 23.4834 156.992 23.1577 156.778 22.7356C156.57 22.3135 156.466 21.8107 156.466 21.2271C156.466 20.7894 156.526 20.3985 156.646 20.0546C156.771 19.7055 156.948 19.4085 157.177 19.1636C157.412 18.9134 157.696 18.7233 158.029 18.593C158.368 18.4627 158.751 18.3976 159.178 18.3976C159.491 18.3976 159.798 18.4393 160.1 18.5226C160.403 18.6008 160.679 18.7311 160.929 18.9134C161.002 18.9656 161.049 19.0255 161.07 19.0932C161.09 19.161 161.09 19.2313 161.07 19.3043C161.054 19.372 161.02 19.4319 160.968 19.484C160.921 19.5361 160.861 19.5674 160.788 19.5778C160.72 19.5883 160.645 19.5674 160.562 19.5153C160.358 19.3746 160.145 19.273 159.921 19.2105C159.697 19.1427 159.449 19.1089 159.178 19.1089C158.772 19.1089 158.428 19.1922 158.146 19.359C157.87 19.5257 157.662 19.768 157.521 20.0859C157.38 20.3985 157.31 20.7789 157.31 21.2271C157.31 21.9201 157.474 22.4464 157.802 22.806C158.131 23.1655 158.618 23.3453 159.264 23.3453C159.499 23.3453 159.728 23.3244 159.952 23.2827C160.181 23.2358 160.4 23.1707 160.608 23.0873L160.444 23.4938V21.6726H159.436C159.332 21.6726 159.248 21.6465 159.186 21.5944C159.129 21.5371 159.1 21.4589 159.1 21.3599C159.1 21.2609 159.129 21.188 159.186 21.1411C159.248 21.089 159.332 21.0629 159.436 21.0629H160.788C160.898 21.0629 160.981 21.0916 161.038 21.1489C161.096 21.2062 161.124 21.2896 161.124 21.399V23.3687C161.124 23.4625 161.106 23.5433 161.07 23.611C161.038 23.6736 160.984 23.7205 160.905 23.7517C160.681 23.8403 160.418 23.9133 160.116 23.9706C159.814 24.0227 159.519 24.0487 159.233 24.0487ZM164.838 24.0331C164.708 24.0331 164.606 23.9966 164.533 23.9237C164.465 23.8507 164.432 23.7491 164.432 23.6188V18.8822C164.432 18.7467 164.468 18.6451 164.541 18.5773C164.614 18.5044 164.716 18.4679 164.846 18.4679H166.714C167.308 18.4679 167.766 18.6086 168.09 18.89C168.413 19.1714 168.574 19.57 168.574 20.0859C168.574 20.4194 168.501 20.706 168.355 20.9457C168.209 21.1854 167.996 21.3678 167.714 21.4928C167.438 21.6179 167.105 21.6804 166.714 21.6804L166.784 21.571H166.987C167.196 21.571 167.376 21.6231 167.527 21.7273C167.683 21.8315 167.824 21.9983 167.949 22.2275L168.621 23.4782C168.673 23.5719 168.697 23.6631 168.691 23.7517C168.691 23.8351 168.66 23.9028 168.598 23.9549C168.54 24.0071 168.457 24.0331 168.347 24.0331C168.233 24.0331 168.139 24.0097 168.066 23.9628C167.998 23.9107 167.936 23.8351 167.879 23.7361L167.058 22.2197C166.948 22.0165 166.823 21.881 166.683 21.8133C166.542 21.7403 166.357 21.7039 166.128 21.7039H165.244V23.6188C165.244 23.7491 165.211 23.8507 165.143 23.9237C165.075 23.9966 164.973 24.0331 164.838 24.0331ZM165.244 21.0942H166.581C166.977 21.0942 167.277 21.0108 167.48 20.8441C167.683 20.6773 167.785 20.4298 167.785 20.1015C167.785 19.7784 167.683 19.5335 167.48 19.3668C167.277 19.2 166.977 19.1167 166.581 19.1167H165.244V21.0942ZM170.128 24.0331C169.997 24.0331 169.896 23.9966 169.823 23.9237C169.755 23.8507 169.721 23.7491 169.721 23.6188V18.8275C169.721 18.692 169.755 18.5904 169.823 18.5226C169.896 18.4497 169.997 18.4132 170.128 18.4132C170.258 18.4132 170.357 18.4497 170.425 18.5226C170.498 18.5904 170.534 18.692 170.534 18.8275V23.6188C170.534 23.7491 170.5 23.8507 170.433 23.9237C170.365 23.9966 170.263 24.0331 170.128 24.0331Z" fill="black" fill-opacity="0.64"/>
</svg>
