<svg width="62" height="26" viewBox="0 0 62 26" fill="none" xmlns="http://www.w3.org/2000/svg">
<rect x="41.002" y="11.501" width="16.0172" height="4.80518" rx="2.40259" fill="#0F8445"/>
<rect x="41.002" y="1.08984" width="4.80515" height="24.8268" rx="2.40258" fill="#FEBD1E"/>
<rect x="3.36133" y="11.501" width="11.212" height="4.80518" rx="2.40259" fill="#0F8445"/>
<rect width="4.80517" height="18.3516" rx="2.40258" transform="matrix(0.719044 0.694965 -0.69496 0.719049 43.3447 0.136719)" fill="#0F8445"/>
<rect x="21.7812" y="1.08984" width="4.80515" height="24.8268" rx="2.40258" fill="#FEBD1E"/>
<rect x="0.958984" y="0.882812" width="4.80515" height="24.8268" rx="2.40258" fill="#FEBD1E"/>
<rect width="4.80517" height="18.4316" rx="2.40258" transform="matrix(0.707104 -0.707109 0.707104 0.707109 20.7744 3.48096)" fill="#0F8445"/>
<rect x="41.8027" y="1.08984" width="15.2163" height="4.80518" rx="2.40259" fill="#0F8445"/>
<rect x="0.958984" y="0.882812" width="13.6146" height="4.80518" rx="2.40259" fill="#0F8445"/>
<path d="M53.8154 11.5011V16.3063C64.2266 16.3063 63.4257 1.08984 53.8154 1.08984V5.89503C57.8197 5.89503 57.8197 11.5011 53.8154 11.5011Z" fill="#0F8445"/>
<path d="M12.1709 11.5004V16.3056C22.5821 16.3056 21.7812 0.882812 12.1709 0.882812V5.688C16.1752 5.688 16.1752 11.5004 12.1709 11.5004Z" fill="#0F8445"/>
</svg>
